; NON-PLATED HOLES START AT T1
; THROUGH (PLATED) HOLES START AT T100
M48
INCH
T1C0.035433
T100C0.036111
T101C0.038000
T102C0.015748
T103C0.042000
T104C0.040000
%
T1
X001880Y008884
X001880Y007152
T100
X017864Y013388
X014864Y004388
X018864Y004388
X013864Y004388
X014864Y013388
X013864Y013388
X016864Y013388
X012864Y004388
X015864Y004388
X012864Y013388
X011864Y004388
X015864Y013388
X017864Y004388
X016864Y004388
X011864Y013388
X018864Y013388
T101
X026864Y010508
X004864Y012388
X026864Y008948
X003864Y012388
X026864Y007388
X005864Y012388
T102
X027870Y010392
T103
X006864Y002408
X006864Y005388
T104
X023864Y005388
X001864Y003766
X004864Y009168
X023864Y013388
X001864Y002388
X007424Y009168
X022864Y007388
X022864Y003388
X023864Y007388
X004864Y007388
X023864Y006388
X022864Y004388
X022864Y006388
X025864Y013388
X024864Y013488
X007424Y007388
X026864Y003010
X023864Y003388
X022864Y005388
X023864Y004388
X022864Y013488
X026864Y004388
T00
M30
