G04 MADE WITH FRITZING*
G04 WWW.FRITZING.ORG*
G04 DOUBLE SIDED*
G04 HOLES PLATED*
G04 CONTOUR ON CENTER OF CONTOUR VECTOR*
%ASAXBY*%
%FSLAX23Y23*%
%MOIN*%
%OFA0B0*%
%SFA1.0B1.0*%
%ADD10C,0.087778*%
%ADD11C,0.090000*%
%ADD12C,0.088000*%
%ADD13C,0.092000*%
%ADD14C,0.045433*%
%ADD15C,0.084000*%
%ADD16C,0.049370*%
%ADD17R,0.090000X0.090000*%
%ADD18R,0.088000X0.088000*%
%ADD19R,0.092000X0.092000*%
%ADD20R,0.108425X0.029685*%
%ADD21R,0.108425X0.088740*%
%ADD22R,0.065118X0.023779*%
%ADD23R,0.084803X0.080866*%
%ADD24R,0.001000X0.001000*%
%LNMASK1*%
G90*
G70*
G54D10*
X1886Y1339D03*
X1786Y1339D03*
X1686Y1339D03*
X1586Y1339D03*
X1486Y1339D03*
X1386Y1339D03*
X1286Y1339D03*
X1186Y1339D03*
X1186Y439D03*
X1286Y439D03*
X1386Y439D03*
X1486Y439D03*
X1586Y439D03*
X1686Y439D03*
X1786Y439D03*
X1886Y439D03*
G54D11*
X186Y239D03*
X186Y377D03*
X2686Y439D03*
X2686Y301D03*
G54D12*
X2686Y1051D03*
X2686Y895D03*
X2686Y739D03*
G54D13*
X686Y539D03*
X686Y241D03*
G54D14*
X188Y888D03*
X188Y715D03*
X188Y888D03*
X188Y715D03*
G54D15*
X2286Y739D03*
X2386Y739D03*
X2286Y639D03*
X2386Y639D03*
X2286Y539D03*
X2386Y539D03*
X2286Y439D03*
X2386Y439D03*
X2286Y339D03*
X2386Y339D03*
X2286Y739D03*
X2386Y739D03*
X2286Y639D03*
X2386Y639D03*
X2286Y539D03*
X2386Y539D03*
X2286Y439D03*
X2386Y439D03*
X2286Y339D03*
X2386Y339D03*
X2586Y1339D03*
X2486Y1349D03*
X2386Y1339D03*
X2286Y1349D03*
X2586Y1339D03*
X2486Y1349D03*
X2386Y1339D03*
X2286Y1349D03*
G54D12*
X586Y1239D03*
X486Y1239D03*
X386Y1239D03*
G54D15*
X486Y917D03*
X742Y917D03*
X486Y739D03*
X742Y739D03*
X486Y917D03*
X742Y917D03*
X486Y739D03*
X742Y739D03*
G54D16*
X2787Y1039D03*
G54D17*
X186Y239D03*
X2686Y439D03*
G54D18*
X2686Y1051D03*
G54D19*
X686Y540D03*
G54D20*
X286Y802D03*
X286Y833D03*
X286Y739D03*
X286Y770D03*
G54D21*
X70Y625D03*
X70Y979D03*
X286Y625D03*
X286Y979D03*
G54D20*
X286Y865D03*
G54D22*
X186Y1341D03*
X186Y1239D03*
X186Y1316D03*
X186Y1290D03*
X186Y1264D03*
G54D23*
X82Y1448D03*
X82Y1133D03*
G54D18*
X586Y1239D03*
G54D24*
X2544Y1381D02*
X2627Y1381D01*
X2544Y1380D02*
X2627Y1380D01*
X2544Y1379D02*
X2627Y1379D01*
X2544Y1378D02*
X2627Y1378D01*
X2544Y1377D02*
X2627Y1377D01*
X2544Y1376D02*
X2627Y1376D01*
X2544Y1375D02*
X2627Y1375D01*
X2544Y1374D02*
X2627Y1374D01*
X2544Y1373D02*
X2627Y1373D01*
X2544Y1372D02*
X2627Y1372D01*
X2544Y1371D02*
X2627Y1371D01*
X2544Y1370D02*
X2627Y1370D01*
X2544Y1369D02*
X2627Y1369D01*
X2544Y1368D02*
X2627Y1368D01*
X2544Y1367D02*
X2627Y1367D01*
X2544Y1366D02*
X2627Y1366D01*
X2544Y1365D02*
X2627Y1365D01*
X2544Y1364D02*
X2627Y1364D01*
X2544Y1363D02*
X2627Y1363D01*
X2544Y1362D02*
X2627Y1362D01*
X2544Y1361D02*
X2627Y1361D01*
X2544Y1360D02*
X2627Y1360D01*
X2544Y1359D02*
X2627Y1359D01*
X2544Y1358D02*
X2627Y1358D01*
X2544Y1357D02*
X2627Y1357D01*
X2544Y1356D02*
X2627Y1356D01*
X2544Y1355D02*
X2627Y1355D01*
X2544Y1354D02*
X2581Y1354D01*
X2591Y1354D02*
X2627Y1354D01*
X2544Y1353D02*
X2579Y1353D01*
X2593Y1353D02*
X2627Y1353D01*
X2544Y1352D02*
X2577Y1352D01*
X2595Y1352D02*
X2627Y1352D01*
X2544Y1351D02*
X2576Y1351D01*
X2596Y1351D02*
X2627Y1351D01*
X2544Y1350D02*
X2575Y1350D01*
X2597Y1350D02*
X2627Y1350D01*
X2544Y1349D02*
X2574Y1349D01*
X2598Y1349D02*
X2627Y1349D01*
X2544Y1348D02*
X2573Y1348D01*
X2599Y1348D02*
X2627Y1348D01*
X2544Y1347D02*
X2572Y1347D01*
X2600Y1347D02*
X2627Y1347D01*
X2544Y1346D02*
X2572Y1346D01*
X2600Y1346D02*
X2627Y1346D01*
X2544Y1345D02*
X2571Y1345D01*
X2601Y1345D02*
X2627Y1345D01*
X2544Y1344D02*
X2571Y1344D01*
X2601Y1344D02*
X2627Y1344D01*
X2544Y1343D02*
X2571Y1343D01*
X2601Y1343D02*
X2627Y1343D01*
X2544Y1342D02*
X2571Y1342D01*
X2601Y1342D02*
X2627Y1342D01*
X2544Y1341D02*
X2571Y1341D01*
X2601Y1341D02*
X2627Y1341D01*
X2544Y1340D02*
X2571Y1340D01*
X2601Y1340D02*
X2627Y1340D01*
X2544Y1339D02*
X2571Y1339D01*
X2601Y1339D02*
X2627Y1339D01*
X2544Y1338D02*
X2571Y1338D01*
X2601Y1338D02*
X2627Y1338D01*
X2544Y1337D02*
X2571Y1337D01*
X2601Y1337D02*
X2627Y1337D01*
X2544Y1336D02*
X2571Y1336D01*
X2601Y1336D02*
X2627Y1336D01*
X2544Y1335D02*
X2571Y1335D01*
X2601Y1335D02*
X2627Y1335D01*
X2544Y1334D02*
X2572Y1334D01*
X2600Y1334D02*
X2627Y1334D01*
X2544Y1333D02*
X2572Y1333D01*
X2600Y1333D02*
X2627Y1333D01*
X2544Y1332D02*
X2573Y1332D01*
X2599Y1332D02*
X2627Y1332D01*
X2544Y1331D02*
X2573Y1331D01*
X2599Y1331D02*
X2627Y1331D01*
X2544Y1330D02*
X2574Y1330D01*
X2598Y1330D02*
X2627Y1330D01*
X2544Y1329D02*
X2575Y1329D01*
X2597Y1329D02*
X2627Y1329D01*
X2544Y1328D02*
X2576Y1328D01*
X2596Y1328D02*
X2627Y1328D01*
X2544Y1327D02*
X2577Y1327D01*
X2594Y1327D02*
X2627Y1327D01*
X2544Y1326D02*
X2579Y1326D01*
X2593Y1326D02*
X2627Y1326D01*
X2544Y1325D02*
X2582Y1325D01*
X2590Y1325D02*
X2627Y1325D01*
X2544Y1324D02*
X2627Y1324D01*
X2544Y1323D02*
X2627Y1323D01*
X2544Y1322D02*
X2627Y1322D01*
X2544Y1321D02*
X2627Y1321D01*
X2544Y1320D02*
X2627Y1320D01*
X2544Y1319D02*
X2627Y1319D01*
X2544Y1318D02*
X2627Y1318D01*
X2544Y1317D02*
X2627Y1317D01*
X2544Y1316D02*
X2627Y1316D01*
X2544Y1315D02*
X2627Y1315D01*
X2544Y1314D02*
X2627Y1314D01*
X2544Y1313D02*
X2627Y1313D01*
X2544Y1312D02*
X2627Y1312D01*
X2544Y1311D02*
X2627Y1311D01*
X2544Y1310D02*
X2627Y1310D01*
X2544Y1309D02*
X2627Y1309D01*
X2544Y1308D02*
X2627Y1308D01*
X2544Y1307D02*
X2627Y1307D01*
X2544Y1306D02*
X2627Y1306D01*
X2544Y1305D02*
X2627Y1305D01*
X2544Y1304D02*
X2627Y1304D01*
X2544Y1303D02*
X2627Y1303D01*
X2544Y1302D02*
X2627Y1302D01*
X2544Y1301D02*
X2627Y1301D01*
X2544Y1300D02*
X2627Y1300D01*
X2544Y1299D02*
X2627Y1299D01*
X2545Y1298D02*
X2627Y1298D01*
D02*
G04 End of Mask1*
M02*