G04 MADE WITH FRITZING*
G04 WWW.FRITZING.ORG*
G04 DOUBLE SIDED*
G04 HOLES PLATED*
G04 CONTOUR ON CENTER OF CONTOUR VECTOR*
%ASAXBY*%
%FSLAX23Y23*%
%MOIN*%
%OFA0B0*%
%SFA1.0B1.0*%
%ADD10C,0.077778*%
%ADD11C,0.080000*%
%ADD12C,0.078000*%
%ADD13C,0.082000*%
%ADD14C,0.074000*%
%ADD15C,0.039370*%
%ADD16R,0.080000X0.080000*%
%ADD17R,0.078000X0.078000*%
%ADD18R,0.082000X0.082000*%
%ADD19R,0.098425X0.019685*%
%ADD20R,0.098425X0.078740*%
%ADD21R,0.055118X0.013780*%
%ADD22R,0.074803X0.070866*%
%ADD23C,0.048000*%
%ADD24C,0.032000*%
%ADD25C,0.024000*%
%ADD26C,0.012000*%
%ADD27R,0.001000X0.001000*%
%LNCOPPER1*%
G90*
G70*
G54D10*
X1886Y1339D03*
X1786Y1339D03*
X1686Y1339D03*
X1586Y1339D03*
X1486Y1339D03*
X1386Y1339D03*
X1286Y1339D03*
X1186Y1339D03*
X1186Y439D03*
X1286Y439D03*
X1386Y439D03*
X1486Y439D03*
X1586Y439D03*
X1686Y439D03*
X1786Y439D03*
X1886Y439D03*
G54D11*
X186Y239D03*
X186Y377D03*
X2686Y439D03*
X2686Y301D03*
G54D12*
X2686Y1051D03*
X2686Y895D03*
X2686Y739D03*
G54D13*
X686Y539D03*
X686Y241D03*
G54D14*
X2286Y739D03*
X2386Y739D03*
X2286Y639D03*
X2386Y639D03*
X2286Y539D03*
X2386Y539D03*
X2286Y439D03*
X2386Y439D03*
X2286Y339D03*
X2386Y339D03*
X2286Y739D03*
X2386Y739D03*
X2286Y639D03*
X2386Y639D03*
X2286Y539D03*
X2386Y539D03*
X2286Y439D03*
X2386Y439D03*
X2286Y339D03*
X2386Y339D03*
X2586Y1339D03*
X2486Y1349D03*
X2386Y1339D03*
X2286Y1349D03*
X2586Y1339D03*
X2486Y1349D03*
X2386Y1339D03*
X2286Y1349D03*
G54D12*
X586Y1239D03*
X486Y1239D03*
X386Y1239D03*
G54D14*
X486Y917D03*
X742Y917D03*
X486Y739D03*
X742Y739D03*
X486Y917D03*
X742Y917D03*
X486Y739D03*
X742Y739D03*
G54D15*
X2787Y1039D03*
G54D16*
X186Y239D03*
X2686Y439D03*
G54D17*
X2686Y1051D03*
G54D18*
X686Y540D03*
G54D19*
X286Y802D03*
X286Y833D03*
X286Y739D03*
X286Y770D03*
G54D20*
X70Y625D03*
X70Y979D03*
X286Y625D03*
X286Y979D03*
G54D19*
X286Y865D03*
G54D21*
X186Y1341D03*
X186Y1239D03*
X186Y1316D03*
X186Y1290D03*
X186Y1264D03*
G54D22*
X82Y1448D03*
X82Y1133D03*
G54D17*
X586Y1239D03*
G54D23*
X2686Y698D02*
X2686Y481D01*
G54D24*
D02*
X767Y1044D02*
X687Y1339D01*
D02*
X687Y1339D02*
X588Y1439D01*
D02*
X289Y869D02*
X387Y1039D01*
D02*
X95Y1013D02*
X188Y1137D01*
D02*
X188Y1137D02*
X187Y1238D01*
G54D23*
D02*
X186Y702D02*
X84Y945D01*
D02*
X243Y658D02*
X186Y702D01*
G54D25*
D02*
X286Y735D02*
X286Y659D01*
D02*
X1188Y537D02*
X719Y539D01*
D02*
X1187Y468D02*
X1188Y537D01*
D02*
X2386Y408D02*
X2386Y370D01*
D02*
X2386Y508D02*
X2386Y470D01*
D02*
X2386Y608D02*
X2386Y570D01*
D02*
X2386Y708D02*
X2386Y670D01*
D02*
X1384Y837D02*
X2287Y837D01*
D02*
X2287Y837D02*
X2657Y891D01*
D02*
X1386Y468D02*
X1384Y837D01*
G54D24*
D02*
X1888Y1039D02*
X2085Y1039D01*
D02*
X2085Y1039D02*
X2486Y1139D01*
D02*
X767Y1044D02*
X1888Y1039D01*
D02*
X2486Y1139D02*
X2649Y1067D01*
D02*
X387Y1039D02*
X767Y1044D01*
G54D25*
D02*
X2787Y1337D02*
X2618Y1339D01*
D02*
X2787Y1058D02*
X2787Y1337D01*
D02*
X2787Y938D02*
X2787Y1020D01*
D02*
X2700Y766D02*
X2787Y938D01*
D02*
X2085Y1437D02*
X2258Y1361D01*
D02*
X1186Y1437D02*
X2085Y1437D01*
D02*
X1186Y1368D02*
X1186Y1437D01*
D02*
X2255Y439D02*
X1916Y439D01*
D02*
X1886Y538D02*
X1807Y459D01*
D02*
X2255Y539D02*
X1886Y538D01*
D02*
X1886Y639D02*
X1707Y460D01*
D02*
X2255Y639D02*
X1886Y639D01*
D02*
X1886Y738D02*
X1607Y459D01*
D02*
X2255Y739D02*
X1886Y738D01*
D02*
X2787Y1020D02*
X2786Y940D01*
D02*
X1286Y941D02*
X1286Y468D01*
D02*
X1986Y941D02*
X1286Y941D01*
D02*
X2287Y941D02*
X1986Y941D01*
D02*
X2786Y940D02*
X2486Y1039D01*
D02*
X2486Y1039D02*
X2287Y941D01*
G54D24*
D02*
X588Y1439D02*
X388Y1439D01*
D02*
X388Y1439D02*
X189Y1343D01*
G54D26*
D02*
X388Y1337D02*
X199Y1317D01*
D02*
X486Y1337D02*
X388Y1337D01*
D02*
X486Y1263D02*
X486Y1337D01*
G54D25*
D02*
X1286Y468D02*
X1286Y937D01*
D02*
X1286Y937D02*
X774Y918D01*
G54D24*
D02*
X687Y1339D02*
X612Y1264D01*
G54D26*
D02*
X363Y1245D02*
X192Y1289D01*
G54D23*
D02*
X88Y239D02*
X88Y439D01*
D02*
X155Y239D02*
X88Y239D01*
D02*
X88Y439D02*
X250Y591D01*
G54D25*
D02*
X2265Y316D02*
X2285Y338D01*
D02*
X2285Y338D02*
X1187Y339D01*
D02*
X1187Y339D02*
X1488Y339D01*
D02*
X1488Y339D02*
X1487Y410D01*
D02*
X1187Y339D02*
X886Y339D01*
D02*
X886Y339D02*
X787Y339D01*
D02*
X787Y339D02*
X486Y339D01*
D02*
X486Y339D02*
X486Y708D01*
G54D23*
D02*
X228Y369D02*
X387Y339D01*
D02*
X387Y339D02*
X387Y240D01*
D02*
X387Y240D02*
X643Y241D01*
D02*
X2587Y240D02*
X2387Y239D01*
D02*
X2387Y239D02*
X2386Y240D01*
D02*
X2651Y279D02*
X2587Y240D01*
D02*
X2386Y240D02*
X1384Y240D01*
D02*
X1384Y240D02*
X1088Y240D01*
D02*
X1088Y240D02*
X787Y240D01*
D02*
X787Y240D02*
X730Y240D01*
D02*
X787Y141D02*
X185Y141D01*
D02*
X185Y141D02*
X186Y197D01*
D02*
X1384Y141D02*
X787Y141D01*
D02*
X2485Y141D02*
X1384Y141D01*
D02*
X2685Y138D02*
X2485Y141D01*
D02*
X2786Y138D02*
X2685Y138D01*
D02*
X2786Y338D02*
X2786Y138D01*
D02*
X2786Y440D02*
X2786Y338D01*
D02*
X2687Y440D02*
X2786Y440D01*
D02*
X2715Y470D02*
X2687Y440D01*
G54D26*
D02*
X2288Y1238D02*
X2369Y1321D01*
D02*
X2185Y1238D02*
X2288Y1238D01*
D02*
X1909Y1331D02*
X2185Y1238D01*
D02*
X1787Y1238D02*
X2185Y1139D01*
D02*
X2185Y1139D02*
X2388Y1238D01*
D02*
X2388Y1238D02*
X2469Y1330D01*
D02*
X1787Y1315D02*
X1787Y1238D01*
G54D25*
D02*
X2656Y739D02*
X2418Y739D01*
G54D27*
X2549Y1376D02*
X2622Y1376D01*
X2549Y1375D02*
X2622Y1375D01*
X2549Y1374D02*
X2622Y1374D01*
X2549Y1373D02*
X2622Y1373D01*
X2549Y1372D02*
X2622Y1372D01*
X2549Y1371D02*
X2622Y1371D01*
X2549Y1370D02*
X2622Y1370D01*
X2549Y1369D02*
X2622Y1369D01*
X2549Y1368D02*
X2622Y1368D01*
X2549Y1367D02*
X2622Y1367D01*
X2549Y1366D02*
X2622Y1366D01*
X2549Y1365D02*
X2622Y1365D01*
X2549Y1364D02*
X2622Y1364D01*
X2549Y1363D02*
X2622Y1363D01*
X2549Y1362D02*
X2622Y1362D01*
X2549Y1361D02*
X2622Y1361D01*
X2549Y1360D02*
X2622Y1360D01*
X2549Y1359D02*
X2581Y1359D01*
X2591Y1359D02*
X2622Y1359D01*
X2549Y1358D02*
X2577Y1358D01*
X2594Y1358D02*
X2622Y1358D01*
X2549Y1357D02*
X2576Y1357D01*
X2596Y1357D02*
X2622Y1357D01*
X2549Y1356D02*
X2574Y1356D01*
X2598Y1356D02*
X2622Y1356D01*
X2549Y1355D02*
X2573Y1355D01*
X2599Y1355D02*
X2622Y1355D01*
X2549Y1354D02*
X2572Y1354D01*
X2600Y1354D02*
X2622Y1354D01*
X2549Y1353D02*
X2571Y1353D01*
X2601Y1353D02*
X2622Y1353D01*
X2549Y1352D02*
X2570Y1352D01*
X2602Y1352D02*
X2622Y1352D01*
X2549Y1351D02*
X2569Y1351D01*
X2603Y1351D02*
X2622Y1351D01*
X2549Y1350D02*
X2568Y1350D01*
X2604Y1350D02*
X2622Y1350D01*
X2549Y1349D02*
X2568Y1349D01*
X2604Y1349D02*
X2622Y1349D01*
X2549Y1348D02*
X2567Y1348D01*
X2605Y1348D02*
X2622Y1348D01*
X2549Y1347D02*
X2567Y1347D01*
X2605Y1347D02*
X2622Y1347D01*
X2549Y1346D02*
X2567Y1346D01*
X2605Y1346D02*
X2622Y1346D01*
X2549Y1345D02*
X2566Y1345D01*
X2606Y1345D02*
X2622Y1345D01*
X2549Y1344D02*
X2566Y1344D01*
X2606Y1344D02*
X2622Y1344D01*
X2549Y1343D02*
X2566Y1343D01*
X2606Y1343D02*
X2622Y1343D01*
X2549Y1342D02*
X2566Y1342D01*
X2606Y1342D02*
X2622Y1342D01*
X2549Y1341D02*
X2566Y1341D01*
X2606Y1341D02*
X2622Y1341D01*
X2549Y1340D02*
X2566Y1340D01*
X2606Y1340D02*
X2622Y1340D01*
X2549Y1339D02*
X2566Y1339D01*
X2606Y1339D02*
X2622Y1339D01*
X2549Y1338D02*
X2566Y1338D01*
X2606Y1338D02*
X2622Y1338D01*
X2549Y1337D02*
X2566Y1337D01*
X2606Y1337D02*
X2622Y1337D01*
X2549Y1336D02*
X2566Y1336D01*
X2606Y1336D02*
X2622Y1336D01*
X2549Y1335D02*
X2566Y1335D01*
X2606Y1335D02*
X2622Y1335D01*
X2549Y1334D02*
X2566Y1334D01*
X2606Y1334D02*
X2622Y1334D01*
X2549Y1333D02*
X2567Y1333D01*
X2605Y1333D02*
X2622Y1333D01*
X2549Y1332D02*
X2567Y1332D01*
X2605Y1332D02*
X2622Y1332D01*
X2549Y1331D02*
X2568Y1331D01*
X2604Y1331D02*
X2622Y1331D01*
X2549Y1330D02*
X2568Y1330D01*
X2604Y1330D02*
X2622Y1330D01*
X2549Y1329D02*
X2569Y1329D01*
X2603Y1329D02*
X2622Y1329D01*
X2549Y1328D02*
X2569Y1328D01*
X2603Y1328D02*
X2622Y1328D01*
X2549Y1327D02*
X2570Y1327D01*
X2602Y1327D02*
X2622Y1327D01*
X2549Y1326D02*
X2571Y1326D01*
X2601Y1326D02*
X2622Y1326D01*
X2549Y1325D02*
X2572Y1325D01*
X2600Y1325D02*
X2622Y1325D01*
X2549Y1324D02*
X2573Y1324D01*
X2599Y1324D02*
X2622Y1324D01*
X2549Y1323D02*
X2575Y1323D01*
X2597Y1323D02*
X2622Y1323D01*
X2549Y1322D02*
X2576Y1322D01*
X2596Y1322D02*
X2622Y1322D01*
X2549Y1321D02*
X2579Y1321D01*
X2593Y1321D02*
X2622Y1321D01*
X2549Y1320D02*
X2583Y1320D01*
X2589Y1320D02*
X2622Y1320D01*
X2549Y1319D02*
X2622Y1319D01*
X2549Y1318D02*
X2622Y1318D01*
X2549Y1317D02*
X2622Y1317D01*
X2549Y1316D02*
X2622Y1316D01*
X2549Y1315D02*
X2622Y1315D01*
X2549Y1314D02*
X2622Y1314D01*
X2549Y1313D02*
X2622Y1313D01*
X2549Y1312D02*
X2622Y1312D01*
X2549Y1311D02*
X2622Y1311D01*
X2549Y1310D02*
X2622Y1310D01*
X2549Y1309D02*
X2622Y1309D01*
X2549Y1308D02*
X2622Y1308D01*
X2549Y1307D02*
X2622Y1307D01*
X2549Y1306D02*
X2622Y1306D01*
X2549Y1305D02*
X2622Y1305D01*
X2549Y1304D02*
X2622Y1304D01*
X2550Y1303D02*
X2622Y1303D01*
D02*
G04 End of Copper1*
M02*